<?xml version="1.0" encoding="UTF-8"?>
<!DOCTYPE svg PUBLIC "-//W3C//DTD SVG 1.1//EN" "http://www.w3.org/Graphics/SVG/1.1/DTD/svg11.dtd">
<svg xmlns="http://www.w3.org/2000/svg" version="1.1" width="251px" height="233px" style="shape-rendering:geometricPrecision; text-rendering:geometricPrecision; image-rendering:optimizeQuality; fill-rule:evenodd; clip-rule:evenodd" xmlns:xlink="http://www.w3.org/1999/xlink">
<g><path style="opacity:1" fill="#939ab9" d="M -0.5,-0.5 C 83.1667,-0.5 166.833,-0.5 250.5,-0.5C 250.5,77.1667 250.5,154.833 250.5,232.5C 166.833,232.5 83.1667,232.5 -0.5,232.5C -0.5,154.833 -0.5,77.1667 -0.5,-0.5 Z"/></g>
<g><path style="opacity:1" fill="#8c93b0" d="M 211.5,105.5 C 204.995,68.4832 184.662,41.9832 150.5,26C 146.104,23.7005 141.438,22.5339 136.5,22.5C 130.884,21.4598 125.217,20.7931 119.5,20.5C 111.315,19.2795 102.982,19.2795 94.5,20.5C 87.1124,19.8078 80.1124,21.1411 73.5,24.5C 39.044,41.1347 18.3774,68.1347 11.5,105.5C 11.0901,96.7502 11.5901,88.0836 13,79.5C 32.0589,36.8914 64.8923,15.2247 111.5,14.5C 158.108,15.2247 190.941,36.8914 210,79.5C 211.41,88.0836 211.91,96.7502 211.5,105.5 Z"/></g>
<g><path style="opacity:1" fill="#3066d7" d="M 119.5,20.5 C 114.06,27.1084 108.06,33.275 101.5,39C 102.448,39.4828 103.448,39.6495 104.5,39.5C 66.876,45.4562 44.2093,67.1229 36.5,104.5C 30.4749,110.859 24.1416,116.859 17.5,122.5C 16.5119,117.36 16.1786,112.026 16.5,106.5C 23.3459,60.3263 49.3459,31.6596 94.5,20.5C 102.982,19.2795 111.315,19.2795 119.5,20.5 Z"/></g>
<g><path style="opacity:1" fill="#2756c7" d="M 119.5,20.5 C 125.217,20.7931 130.884,21.4598 136.5,22.5C 141.249,24.3052 145.915,26.3052 150.5,28.5C 148.801,28.3398 147.134,28.5065 145.5,29C 145.833,29.3333 146.167,29.6667 146.5,30C 141.951,33.3695 137.618,37.0362 133.5,41C 134.056,41.3826 134.389,41.8826 134.5,42.5C 127.599,40.9287 120.599,39.9287 113.5,39.5C 110.5,39.5 107.5,39.5 104.5,39.5C 103.448,39.6495 102.448,39.4828 101.5,39C 108.06,33.275 114.06,27.1084 119.5,20.5 Z"/></g>
<g><path style="opacity:1" fill="#2349b9" d="M 150.5,28.5 C 158.858,31.6718 166.191,36.3385 172.5,42.5C 172.844,43.6828 172.178,44.5161 170.5,45C 170.833,45.3333 171.167,45.6667 171.5,46C 170.062,46.2189 168.729,46.7189 167.5,47.5C 166.359,48.4255 166.359,49.2588 167.5,50C 166.167,50.3333 164.833,50.6667 163.5,51C 163.5,52 163.5,53 163.5,54C 161.563,54.1216 160.23,54.955 159.5,56.5C 157.999,55.2485 156.332,54.2485 154.5,53.5C 148.412,48.7892 141.745,45.1225 134.5,42.5C 134.389,41.8826 134.056,41.3826 133.5,41C 137.618,37.0362 141.951,33.3695 146.5,30C 146.167,29.6667 145.833,29.3333 145.5,29C 147.134,28.5065 148.801,28.3398 150.5,28.5 Z"/></g>
<g><path style="opacity:1" fill="#65758c" d="M 99.5,49.5 C 107.84,49.3336 116.173,49.5003 124.5,50C 126.34,52.8263 127.006,55.9929 126.5,59.5C 127.006,63.0071 126.34,66.1737 124.5,69C 115.833,69.6667 107.167,69.6667 98.5,69C 96.6602,66.1737 95.9935,63.0071 96.5,59.5C 96.5,56.8333 96.5,54.1667 96.5,51.5C 97.5,50.8333 98.5,50.1667 99.5,49.5 Z"/></g>
<g><path style="opacity:1" fill="#3c66c9" d="M 96.5,51.5 C 96.5,54.1667 96.5,56.8333 96.5,59.5C 89.825,59.3337 83.1583,59.5004 76.5,60C 72.0928,62.5317 70.4262,66.365 71.5,71.5C 69.0004,77.4669 67.6671,83.8002 67.5,90.5C 67.2625,93.2116 67.2625,95.7116 67.5,98C 66.8333,99.6667 66.1667,101.333 65.5,103C 65.8908,108.293 64.7242,113.459 62,118.5C 61.213,113.039 62.0463,107.539 64.5,102C 63.9319,100.704 63.9319,99.2044 64.5,97.5C 64.1667,96.5 63.8333,95.5 63.5,94.5C 62.3044,94.8457 62.3044,95.3457 63.5,96C 61.2712,103.242 59.2712,110.242 57.5,117C 57.8333,117.333 58.1667,117.667 58.5,118C 56.641,118.684 54.9743,119.684 53.5,121C 53.8333,121.333 54.1667,121.667 54.5,122C 49.9514,125.37 45.6181,129.036 41.5,133C 41.8333,133.333 42.1667,133.667 42.5,134C 41.552,134.483 40.552,134.649 39.5,134.5C 37.6875,128.682 36.6875,122.682 36.5,116.5C 42.452,110.548 48.452,104.548 54.5,98.5C 55.2436,97.0095 55.9103,95.5095 56.5,94C 56.1667,93.6667 55.8333,93.3333 55.5,93C 58.4733,90.7648 60.14,87.7648 60.5,84C 61.9927,71.762 68.326,62.4287 79.5,56C 85.2074,54.5965 90.8741,53.0965 96.5,51.5 Z"/></g>
<g><path style="opacity:1" fill="#fefefe" d="M 100.5,52.5 C 107.841,52.3337 115.174,52.5003 122.5,53C 123.467,57.4014 123.8,61.9014 123.5,66.5C 115.826,66.6664 108.159,66.4997 100.5,66C 99.1943,61.5006 99.1943,57.0006 100.5,52.5 Z"/></g>
<g><path style="opacity:1" fill="#385cbd" d="M 113.5,39.5 C 120.599,39.9287 127.599,40.9287 134.5,42.5C 141.745,45.1225 148.412,48.7892 154.5,53.5C 153.047,54.8249 153.381,55.6582 155.5,56C 154.5,56.3333 153.5,56.6667 152.5,57C 153.833,57.6667 153.833,58.3333 152.5,59C 153.623,60.0437 154.956,60.7104 156.5,61C 154.404,61.7365 152.737,62.9032 151.5,64.5C 150.354,62.525 148.687,61.025 146.5,60C 139.842,59.5004 133.175,59.3337 126.5,59.5C 127.006,55.9929 126.34,52.8263 124.5,50C 116.173,49.5003 107.84,49.3336 99.5,49.5C 101.985,47.9924 104.652,46.659 107.5,45.5C 109.548,43.452 111.548,41.452 113.5,39.5 Z"/></g>
<g><path style="opacity:1" fill="#848ba7" d="M 94.5,20.5 C 49.3459,31.6596 23.3459,60.3263 16.5,106.5C 12.9441,155.421 33.6108,189.587 78.5,209C 85.514,211.295 92.514,213.128 99.5,214.5C 90.1793,215.373 81.1793,214.207 72.5,211C 28.8259,189.502 8.49262,154.335 11.5,105.5C 18.3774,68.1347 39.044,41.1347 73.5,24.5C 80.1124,21.1411 87.1124,19.8078 94.5,20.5 Z"/></g>
<g><path style="opacity:1" fill="#f8fafc" d="M 96.5,59.5 C 95.9935,63.0071 96.6602,66.1737 98.5,69C 107.167,69.6667 115.833,69.6667 124.5,69C 126.34,66.1737 127.006,63.0071 126.5,59.5C 133.175,59.3337 139.842,59.5004 146.5,60C 148.687,61.025 150.354,62.525 151.5,64.5C 151.5,66.8333 151.5,69.1667 151.5,71.5C 151.983,99.9217 151.483,128.255 150,156.5C 149.097,157.701 147.931,158.535 146.5,159C 123.167,159.667 99.8333,159.667 76.5,159C 74.313,157.975 72.6464,156.475 71.5,154.5C 71.5,126.833 71.5,99.1667 71.5,71.5C 70.4262,66.365 72.0928,62.5317 76.5,60C 83.1583,59.5004 89.825,59.3337 96.5,59.5 Z"/></g>
<g><path style="opacity:1" fill="#838aa7" d="M 136.5,22.5 C 141.438,22.5339 146.104,23.7005 150.5,26C 184.662,41.9832 204.995,68.4832 211.5,105.5C 214.487,154.382 194.153,189.549 150.5,211C 141.821,214.207 132.821,215.373 123.5,214.5C 170.487,205.679 198.321,177.679 207,130.5C 207.823,122.323 207.656,114.323 206.5,106.5C 206.173,100.139 204.84,94.1388 202.5,88.5C 198.646,74.7935 192.146,62.4602 183,51.5C 179.902,47.8926 176.402,44.8926 172.5,42.5C 166.191,36.3385 158.858,31.6718 150.5,28.5C 145.915,26.3052 141.249,24.3052 136.5,22.5 Z"/></g>
<g><path style="opacity:1" fill="#406dd2" d="M 104.5,39.5 C 107.5,39.5 110.5,39.5 113.5,39.5C 111.548,41.452 109.548,43.452 107.5,45.5C 104.652,46.659 101.985,47.9924 99.5,49.5C 98.5,50.1667 97.5,50.8333 96.5,51.5C 90.8741,53.0965 85.2074,54.5965 79.5,56C 68.326,62.4287 61.9927,71.762 60.5,84C 60.14,87.7648 58.4733,90.7648 55.5,93C 55.8333,93.3333 56.1667,93.6667 56.5,94C 55.9103,95.5095 55.2436,97.0095 54.5,98.5C 48.452,104.548 42.452,110.548 36.5,116.5C 36.5,112.5 36.5,108.5 36.5,104.5C 44.2093,67.1229 66.876,45.4562 104.5,39.5 Z"/></g>
<g><path style="opacity:1" fill="#a48967" d="M 54.5,71.5 C 59.1585,71.0146 60.4919,72.848 58.5,77C 53.7282,77.8104 52.3948,75.9771 54.5,71.5 Z"/></g>
<g><path style="opacity:1" fill="#cbd5e1" d="M 87.5,79.5 C 98.8333,79.5 110.167,79.5 121.5,79.5C 121.5,80.5 121.5,81.5 121.5,82.5C 110.167,82.5 98.8333,82.5 87.5,82.5C 87.5,81.5 87.5,80.5 87.5,79.5 Z"/></g>
<g><path style="opacity:1" fill="#38b287" d="M 87.5,79.5 C 87.5,80.5 87.5,81.5 87.5,82.5C 84.0157,86.5966 81.349,86.0966 79.5,81C 81.349,75.9034 84.0157,75.4034 87.5,79.5 Z"/></g>
<g><path style="opacity:1" fill="#dbf2ea" d="M 84.5,79.5 C 85.2389,79.369 85.9056,79.5357 86.5,80C 84.6629,83.645 82.6629,83.9784 80.5,81C 82.366,82.0084 83.6993,81.5084 84.5,79.5 Z"/></g>
<g><path style="opacity:1" fill="#1d3fa7" d="M 172.5,42.5 C 176.402,44.8926 179.902,47.8926 183,51.5C 192.146,62.4602 198.646,74.7935 202.5,88.5C 201.621,89.5764 199.954,90.4097 197.5,91C 198.167,91.3333 198.833,91.6667 199.5,92C 198.167,92.3333 196.833,92.6667 195.5,93C 196.167,93.3333 196.833,93.6667 197.5,94C 196.167,94.3333 194.833,94.6667 193.5,95C 194.167,95.3333 194.833,95.6667 195.5,96C 194.167,96.3333 192.833,96.6667 191.5,97C 192.167,97.3333 192.833,97.6667 193.5,98C 192.167,98.3333 190.833,98.6667 189.5,99C 190.167,99.3333 190.833,99.6667 191.5,100C 190.167,100.333 188.833,100.667 187.5,101C 188.167,101.333 188.833,101.667 189.5,102C 188.207,102.49 186.873,102.657 185.5,102.5C 182.265,83.9707 173.598,68.6373 159.5,56.5C 160.23,54.955 161.563,54.1216 163.5,54C 163.5,53 163.5,52 163.5,51C 164.833,50.6667 166.167,50.3333 167.5,50C 166.359,49.2588 166.359,48.4255 167.5,47.5C 168.729,46.7189 170.062,46.2189 171.5,46C 171.167,45.6667 170.833,45.3333 170.5,45C 172.178,44.5161 172.844,43.6828 172.5,42.5 Z"/></g>
<g><path style="opacity:1" fill="#696bf1" d="M 126.5,92.5 C 125.89,91.609 125.557,90.609 125.5,89.5C 127.619,82.7694 131.452,81.7694 137,86.5C 138.232,91.7105 136.232,94.7105 131,95.5C 128.817,95.4779 127.317,94.4779 126.5,92.5 Z"/></g>
<g><path style="opacity:1" fill="#3250ac" d="M 154.5,53.5 C 156.332,54.2485 157.999,55.2485 159.5,56.5C 173.598,68.6373 182.265,83.9707 185.5,102.5C 186.691,110.445 186.691,118.445 185.5,126.5C 184.127,126.343 182.793,126.51 181.5,127C 182.167,127.333 182.833,127.667 183.5,128C 181.774,129.53 179.774,130.53 177.5,131C 178.167,131.333 178.833,131.667 179.5,132C 177.774,133.53 175.774,134.53 173.5,135C 174.167,135.333 174.833,135.667 175.5,136C 174.354,136.645 173.354,137.478 172.5,138.5C 171.833,137.167 171.167,135.833 170.5,134.5C 169.646,135.522 168.646,136.355 167.5,137C 169.932,138.087 169.598,138.587 166.5,138.5C 165.42,134.347 164.42,130.18 163.5,126C 163.833,125.667 164.167,125.333 164.5,125C 163.137,123.055 162.303,120.888 162,118.5C 161.333,129.833 161.333,141.167 162,152.5C 164.069,154.704 163.569,156.037 160.5,156.5C 160.752,148.605 160.086,140.438 158.5,132C 158.833,131.667 159.167,131.333 159.5,131C 157.309,116.618 155.643,101.618 154.5,86C 154.833,85.6667 155.167,85.3333 155.5,85C 154.694,80.263 153.361,75.763 151.5,71.5C 151.5,69.1667 151.5,66.8333 151.5,64.5C 152.737,62.9032 154.404,61.7365 156.5,61C 154.956,60.7104 153.623,60.0437 152.5,59C 153.833,58.3333 153.833,57.6667 152.5,57C 153.5,56.6667 154.5,56.3333 155.5,56C 153.381,55.6582 153.047,54.8249 154.5,53.5 Z"/></g>
<g><path style="opacity:1" fill="#1f8d95" d="M 165.5,82.5 C 168.861,83.2032 169.194,84.5365 166.5,86.5C 164.358,85.5629 164.024,84.2296 165.5,82.5 Z"/></g>
<g><path style="opacity:1" fill="#1d3d9f" d="M 202.5,88.5 C 204.84,94.1388 206.173,100.139 206.5,106.5C 206.5,109.167 206.5,111.833 206.5,114.5C 203.402,114.413 203.068,114.913 205.5,116C 203.774,117.53 201.774,118.53 199.5,119C 200.167,119.333 200.833,119.667 201.5,120C 199.774,121.53 197.774,122.53 195.5,123C 197.991,123.626 197.991,124.459 195.5,125.5C 194.271,126.281 192.938,126.781 191.5,127C 192.167,127.333 192.833,127.667 193.5,128C 191.774,129.53 189.774,130.53 187.5,131C 188.167,131.333 188.833,131.667 189.5,132C 188.338,132.827 187.171,133.66 186,134.5C 184.97,134.164 184.47,133.497 184.5,132.5C 184.833,130.5 185.167,128.5 185.5,126.5C 186.691,118.445 186.691,110.445 185.5,102.5C 186.873,102.657 188.207,102.49 189.5,102C 188.833,101.667 188.167,101.333 187.5,101C 188.833,100.667 190.167,100.333 191.5,100C 190.833,99.6667 190.167,99.3333 189.5,99C 190.833,98.6667 192.167,98.3333 193.5,98C 192.833,97.6667 192.167,97.3333 191.5,97C 192.833,96.6667 194.167,96.3333 195.5,96C 194.833,95.6667 194.167,95.3333 193.5,95C 194.833,94.6667 196.167,94.3333 197.5,94C 196.833,93.6667 196.167,93.3333 195.5,93C 196.833,92.6667 198.167,92.3333 199.5,92C 198.833,91.6667 198.167,91.3333 197.5,91C 199.954,90.4097 201.621,89.5764 202.5,88.5 Z"/></g>
<g><path style="opacity:1" fill="#cad4e1" d="M 87.5,89.5 C 100.167,89.5 112.833,89.5 125.5,89.5C 125.557,90.609 125.89,91.609 126.5,92.5C 113.5,92.5 100.5,92.5 87.5,92.5C 87.5,91.5 87.5,90.5 87.5,89.5 Z"/></g>
<g><path style="opacity:1" fill="#39b288" d="M 87.5,89.5 C 87.5,90.5 87.5,91.5 87.5,92.5C 84.0157,96.5966 81.349,96.0966 79.5,91C 81.349,85.9034 84.0157,85.4034 87.5,89.5 Z"/></g>
<g><path style="opacity:1" fill="#dbf2ea" d="M 84.5,89.5 C 85.2389,89.369 85.9056,89.5357 86.5,90C 84.6629,93.645 82.6629,93.9784 80.5,91C 82.366,92.0084 83.6993,91.5084 84.5,89.5 Z"/></g>
<g><path style="opacity:1" fill="#6769f1" d="M 127.5,96.5 C 130.941,96.3011 134.274,96.8011 137.5,98C 139.229,99.7889 139.896,101.956 139.5,104.5C 134.167,104.5 128.833,104.5 123.5,104.5C 122.774,100.693 124.107,98.0263 127.5,96.5 Z"/></g>
<g><path style="opacity:1" fill="#cbd5e1" d="M 88.5,99.5 C 97.8333,99.5 107.167,99.5 116.5,99.5C 116.5,100.5 116.5,101.5 116.5,102.5C 107.167,102.5 97.8333,102.5 88.5,102.5C 88.5,101.5 88.5,100.5 88.5,99.5 Z"/></g>
<g><path style="opacity:1" fill="#2e4a9c" d="M 151.5,71.5 C 153.361,75.763 154.694,80.263 155.5,85C 155.167,85.3333 154.833,85.6667 154.5,86C 155.643,101.618 157.309,116.618 159.5,131C 159.167,131.333 158.833,131.667 158.5,132C 160.086,140.438 160.752,148.605 160.5,156.5C 160.414,157.496 160.748,158.329 161.5,159C 160.833,159.333 160.167,159.667 159.5,160C 158.572,166.429 154.238,170.596 146.5,172.5C 145.833,172.167 145.167,171.833 144.5,171.5C 144.511,172.441 144.011,173.108 143,173.5C 140.616,172.281 138.283,172.281 136,173.5C 119.01,171.034 101.843,168.701 84.5,166.5C 79.1275,165.612 74.9608,162.945 72,158.5C 71.51,157.207 71.3433,155.873 71.5,154.5C 72.6464,156.475 74.313,157.975 76.5,159C 99.8333,159.667 123.167,159.667 146.5,159C 147.931,158.535 149.097,157.701 150,156.5C 151.483,128.255 151.983,99.9217 151.5,71.5 Z"/></g>
<g><path style="opacity:1" fill="#324fa6" d="M 71.5,71.5 C 71.5,99.1667 71.5,126.833 71.5,154.5C 71.3433,155.873 71.51,157.207 72,158.5C 74.9608,162.945 79.1275,165.612 84.5,166.5C 101.843,168.701 119.01,171.034 136,173.5C 138.283,172.281 140.616,172.281 143,173.5C 144.011,173.108 144.511,172.441 144.5,171.5C 145.167,171.833 145.833,172.167 146.5,172.5C 154.238,170.596 158.572,166.429 159.5,160C 160.167,159.667 160.833,159.333 161.5,159C 160.748,158.329 160.414,157.496 160.5,156.5C 163.569,156.037 164.069,154.704 162,152.5C 161.333,141.167 161.333,129.833 162,118.5C 162.303,120.888 163.137,123.055 164.5,125C 164.167,125.333 163.833,125.667 163.5,126C 164.42,130.18 165.42,134.347 166.5,138.5C 169.598,138.587 169.932,138.087 167.5,137C 168.646,136.355 169.646,135.522 170.5,134.5C 171.167,135.833 171.833,137.167 172.5,138.5C 173.354,137.478 174.354,136.645 175.5,136C 174.833,135.667 174.167,135.333 173.5,135C 175.774,134.53 177.774,133.53 179.5,132C 178.833,131.667 178.167,131.333 177.5,131C 179.774,130.53 181.774,129.53 183.5,128C 182.833,127.667 182.167,127.333 181.5,127C 182.793,126.51 184.127,126.343 185.5,126.5C 185.167,128.5 184.833,130.5 184.5,132.5C 175.411,163.242 155.078,181.908 123.5,188.5C 123.082,187.778 122.416,187.278 121.5,187C 129.058,184.616 129.058,183.283 121.5,183C 123.5,182 125.5,181 127.5,180C 125.508,179.426 124.008,178.259 123,176.5C 122.667,176.833 122.333,177.167 122,177.5C 107.962,174.222 93.7957,171.388 79.5,169C 71.4771,165.057 67.4771,158.89 67.5,150.5C 68.7589,144.128 68.7589,137.461 67.5,130.5C 67.9487,125.141 68.6154,119.807 69.5,114.5C 69.4146,112.667 68.7479,111.334 67.5,110.5C 67.3754,104.413 68.042,98.4131 69.5,92.5C 69.2528,91.2867 68.5862,90.62 67.5,90.5C 67.6671,83.8002 69.0004,77.4669 71.5,71.5 Z"/></g>
<g><path style="opacity:1" fill="#2756c7" d="M 36.5,104.5 C 36.5,108.5 36.5,112.5 36.5,116.5C 36.6875,122.682 37.6875,128.682 39.5,134.5C 39.5,135.167 39.5,135.833 39.5,136.5C 37.6214,136.393 37.2881,136.893 38.5,138C 36.641,138.684 34.9743,139.684 33.5,141C 33.8333,141.333 34.1667,141.667 34.5,142C 32.641,142.684 30.9743,143.684 29.5,145C 29.8333,145.333 30.1667,145.667 30.5,146C 28.641,146.684 26.9743,147.684 25.5,149C 25.8333,149.333 26.1667,149.667 26.5,150C 25.5842,150.278 24.9175,150.778 24.5,151.5C 20.1457,142.414 17.8124,132.747 17.5,122.5C 24.1416,116.859 30.4749,110.859 36.5,104.5 Z"/></g>
<g><path style="opacity:1" fill="#385cbf" d="M 67.5,90.5 C 68.5862,90.62 69.2528,91.2867 69.5,92.5C 68.042,98.4131 67.3754,104.413 67.5,110.5C 66.4862,121.789 64.8195,133.289 62.5,145C 63.8503,149.266 62.1836,151.6 57.5,152C 58.0848,153.302 58.7515,154.469 59.5,155.5C 59.5,155.833 59.5,156.167 59.5,156.5C 57.6214,156.393 57.2881,156.893 58.5,158C 57.376,158.249 56.376,158.749 55.5,159.5C 54.944,160.663 54.6107,161.663 54.5,162.5C 54.1667,162.5 53.8333,162.5 53.5,162.5C 47.2781,154.726 42.6115,146.06 39.5,136.5C 39.5,135.833 39.5,135.167 39.5,134.5C 40.552,134.649 41.552,134.483 42.5,134C 42.1667,133.667 41.8333,133.333 41.5,133C 45.6181,129.036 49.9514,125.37 54.5,122C 54.1667,121.667 53.8333,121.333 53.5,121C 54.9743,119.684 56.641,118.684 58.5,118C 58.1667,117.667 57.8333,117.333 57.5,117C 59.2712,110.242 61.2712,103.242 63.5,96C 62.3044,95.3457 62.3044,94.8457 63.5,94.5C 63.8333,95.5 64.1667,96.5 64.5,97.5C 63.9319,99.2044 63.9319,100.704 64.5,102C 62.0463,107.539 61.213,113.039 62,118.5C 64.7242,113.459 65.8908,108.293 65.5,103C 66.1667,101.333 66.8333,99.6667 67.5,98C 67.2625,95.7116 67.2625,93.2116 67.5,90.5 Z"/></g>
<g><path style="opacity:1" fill="#797f9c" d="M 16.5,106.5 C 16.1786,112.026 16.5119,117.36 17.5,122.5C 17.8124,132.747 20.1457,142.414 24.5,151.5C 27.8936,160.549 32.8936,168.549 39.5,175.5C 50.3202,189.592 64.3202,199.259 81.5,204.5C 113.057,213.885 142.39,209.051 169.5,190C 193.17,170.493 205.503,145.326 206.5,114.5C 206.5,111.833 206.5,109.167 206.5,106.5C 207.656,114.323 207.823,122.323 207,130.5C 198.321,177.679 170.487,205.679 123.5,214.5C 115.5,214.5 107.5,214.5 99.5,214.5C 92.514,213.128 85.514,211.295 78.5,209C 33.6108,189.587 12.9441,155.421 16.5,106.5 Z"/></g>
<g><path style="opacity:1" fill="#3250ac" d="M 67.5,110.5 C 68.7479,111.334 69.4146,112.667 69.5,114.5C 68.6154,119.807 67.9487,125.141 67.5,130.5C 68.7589,137.461 68.7589,144.128 67.5,150.5C 67.4771,158.89 71.4771,165.057 79.5,169C 93.7957,171.388 107.962,174.222 122,177.5C 122.333,177.167 122.667,176.833 123,176.5C 124.008,178.259 125.508,179.426 127.5,180C 125.5,181 123.5,182 121.5,183C 129.058,183.283 129.058,184.616 121.5,187C 122.416,187.278 123.082,187.778 123.5,188.5C 116.196,189.302 108.862,189.635 101.5,189.5C 82.3938,186.448 66.7271,177.448 54.5,162.5C 54.6107,161.663 54.944,160.663 55.5,159.5C 56.376,158.749 57.376,158.249 58.5,158C 57.2881,156.893 57.6214,156.393 59.5,156.5C 60.8333,156.5 62.1667,156.5 63.5,156.5C 63.5,155.167 63.5,153.833 63.5,152.5C 62.1667,152.5 60.8333,152.5 59.5,152.5C 59.5,153.5 59.5,154.5 59.5,155.5C 58.7515,154.469 58.0848,153.302 57.5,152C 62.1836,151.6 63.8503,149.266 62.5,145C 64.8195,133.289 66.4862,121.789 67.5,110.5 Z"/></g>
<g><path style="opacity:1" fill="#a14b73" d="M 59.5,156.5 C 59.5,156.167 59.5,155.833 59.5,155.5C 59.5,154.5 59.5,153.5 59.5,152.5C 60.8333,152.5 62.1667,152.5 63.5,152.5C 63.5,153.833 63.5,155.167 63.5,156.5C 62.1667,156.5 60.8333,156.5 59.5,156.5 Z"/></g>
<g><path style="opacity:1" fill="#2349b9" d="M 39.5,136.5 C 42.6115,146.06 47.2781,154.726 53.5,162.5C 52.7611,162.369 52.0944,162.536 51.5,163C 51.5,164 51.5,165 51.5,166C 50.062,166.219 48.7287,166.719 47.5,167.5C 46.3595,168.425 46.3595,169.259 47.5,170C 46.1667,170.333 44.8333,170.667 43.5,171C 43.5,172 43.5,173 43.5,174C 41.9419,174.21 40.6085,174.71 39.5,175.5C 32.8936,168.549 27.8936,160.549 24.5,151.5C 24.9175,150.778 25.5842,150.278 26.5,150C 26.1667,149.667 25.8333,149.333 25.5,149C 26.9743,147.684 28.641,146.684 30.5,146C 30.1667,145.667 29.8333,145.333 29.5,145C 30.9743,143.684 32.641,142.684 34.5,142C 34.1667,141.667 33.8333,141.333 33.5,141C 34.9743,139.684 36.641,138.684 38.5,138C 37.2881,136.893 37.6214,136.393 39.5,136.5 Z"/></g>
<g><path style="opacity:1" fill="#e68a11" d="M 126.5,112.5 C 127.167,111.833 127.833,111.167 128.5,110.5C 136.615,105.499 143.115,107.166 148,115.5C 149.666,123.189 146.833,128.356 139.5,131C 132.217,132.389 127.383,129.555 125,122.5C 124.153,118.928 124.653,115.594 126.5,112.5 Z"/></g>
<g><path style="opacity:1" fill="#fcf0e3" d="M 135.5,113.5 C 139.321,114.25 139.988,115.916 137.5,118.5C 141.682,121.964 141.349,124.964 136.5,127.5C 133.649,126.988 132.316,125.321 132.5,122.5C 133.552,122.649 134.552,122.483 135.5,122C 131.514,118.985 131.514,116.151 135.5,113.5 Z"/></g>
<g><path style="opacity:1" fill="#1d3d9a" d="M 206.5,114.5 C 205.503,145.326 193.17,170.493 169.5,190C 142.39,209.051 113.057,213.885 81.5,204.5C 83.5273,204.662 85.5273,204.495 87.5,204C 86.8333,203.667 86.1667,203.333 85.5,203C 86.8333,202.667 88.1667,202.333 89.5,202C 88.8333,201.667 88.1667,201.333 87.5,201C 88.8333,200.667 90.1667,200.333 91.5,200C 90.8333,199.667 90.1667,199.333 89.5,199C 90.8333,198.667 92.1667,198.333 93.5,198C 92.8333,197.667 92.1667,197.333 91.5,197C 92.8333,196.667 94.1667,196.333 95.5,196C 94.8333,195.667 94.1667,195.333 93.5,195C 94.8333,194.667 96.1667,194.333 97.5,194C 96.8333,193.667 96.1667,193.333 95.5,193C 96.8333,192.667 98.1667,192.333 99.5,192C 98.8333,191.667 98.1667,191.333 97.5,191C 99.0581,190.79 100.391,190.29 101.5,189.5C 108.862,189.635 116.196,189.302 123.5,188.5C 155.078,181.908 175.411,163.242 184.5,132.5C 184.47,133.497 184.97,134.164 186,134.5C 187.171,133.66 188.338,132.827 189.5,132C 188.833,131.667 188.167,131.333 187.5,131C 189.774,130.53 191.774,129.53 193.5,128C 192.833,127.667 192.167,127.333 191.5,127C 192.938,126.781 194.271,126.281 195.5,125.5C 197.991,124.459 197.991,123.626 195.5,123C 197.774,122.53 199.774,121.53 201.5,120C 200.833,119.667 200.167,119.333 199.5,119C 201.774,118.53 203.774,117.53 205.5,116C 203.068,114.913 203.402,114.413 206.5,114.5 Z"/></g>
<g><path style="opacity:1" fill="#cbd5e0" d="M 128.5,110.5 C 127.833,111.167 127.167,111.833 126.5,112.5C 113.167,112.5 99.8333,112.5 86.5,112.5C 86.5,111.5 86.5,110.5 86.5,109.5C 100.677,109.171 114.677,109.504 128.5,110.5 Z"/></g>
<g><path style="opacity:1" fill="#1d3fa7" d="M 53.5,162.5 C 53.8333,162.5 54.1667,162.5 54.5,162.5C 66.7271,177.448 82.3938,186.448 101.5,189.5C 100.391,190.29 99.0581,190.79 97.5,191C 98.1667,191.333 98.8333,191.667 99.5,192C 98.1667,192.333 96.8333,192.667 95.5,193C 96.1667,193.333 96.8333,193.667 97.5,194C 96.1667,194.333 94.8333,194.667 93.5,195C 94.1667,195.333 94.8333,195.667 95.5,196C 94.1667,196.333 92.8333,196.667 91.5,197C 92.1667,197.333 92.8333,197.667 93.5,198C 92.1667,198.333 90.8333,198.667 89.5,199C 90.1667,199.333 90.8333,199.667 91.5,200C 90.1667,200.333 88.8333,200.667 87.5,201C 88.1667,201.333 88.8333,201.667 89.5,202C 88.1667,202.333 86.8333,202.667 85.5,203C 86.1667,203.333 86.8333,203.667 87.5,204C 85.5273,204.495 83.5273,204.662 81.5,204.5C 64.3202,199.259 50.3202,189.592 39.5,175.5C 40.6085,174.71 41.9419,174.21 43.5,174C 43.5,173 43.5,172 43.5,171C 44.8333,170.667 46.1667,170.333 47.5,170C 46.3595,169.259 46.3595,168.425 47.5,167.5C 48.7287,166.719 50.062,166.219 51.5,166C 51.5,165 51.5,164 51.5,163C 52.0944,162.536 52.7611,162.369 53.5,162.5 Z"/></g>
</svg>
